<svg width="26" height="26" viewBox="0 0 26 26" fill="none" xmlns="http://www.w3.org/2000/svg">
<path d="M25.2622 1.38862C25.0868 1.21283 24.8784 1.07337 24.649 0.978213C24.4196 0.883057 24.1737 0.834077 23.9253 0.834077C23.677 0.834077 23.4311 0.883057 23.2017 0.978213C22.9723 1.07337 22.7639 1.21283 22.5885 1.38862L13.3159 10.6422L4.04334 1.36966C3.86779 1.1941 3.65937 1.05484 3.43 0.959829C3.20062 0.864819 2.95478 0.815918 2.7065 0.815918C2.45823 0.815918 2.21238 0.864819 1.98301 0.959829C1.75363 1.05484 1.54521 1.1941 1.36966 1.36966C1.1941 1.54521 1.05484 1.75363 0.959829 1.98301C0.864819 2.21238 0.815918 2.45823 0.815918 2.7065C0.815918 2.95478 0.864819 3.20062 0.959829 3.43C1.05484 3.65937 1.1941 3.86779 1.36966 4.04334L10.6422 13.3159L1.36966 22.5885C1.1941 22.764 1.05484 22.9725 0.959829 23.2018C0.864819 23.4312 0.815918 23.6771 0.815918 23.9253C0.815918 24.1736 0.864819 24.4195 0.959829 24.6488C1.05484 24.8782 1.1941 25.0866 1.36966 25.2622C1.54521 25.4377 1.75363 25.577 1.98301 25.672C2.21238 25.767 2.45823 25.8159 2.7065 25.8159C2.95478 25.8159 3.20062 25.767 3.43 25.672C3.65937 25.577 3.86779 25.4377 4.04334 25.2622L13.3159 15.9896L22.5885 25.2622C22.764 25.4377 22.9725 25.577 23.2018 25.672C23.4312 25.767 23.6771 25.8159 23.9253 25.8159C24.1736 25.8159 24.4195 25.767 24.6488 25.672C24.8782 25.577 25.0866 25.4377 25.2622 25.2622C25.4377 25.0866 25.577 24.8782 25.672 24.6488C25.767 24.4195 25.8159 24.1736 25.8159 23.9253C25.8159 23.6771 25.767 23.4312 25.672 23.2018C25.577 22.9725 25.4377 22.764 25.2622 22.5885L15.9896 13.3159L25.2622 4.04334C25.9827 3.32278 25.9827 2.10919 25.2622 1.38862Z" fill="white"/>
</svg>
