<svg width="68" height="66" viewBox="0 0 68 66" fill="none" xmlns="http://www.w3.org/2000/svg">
<path d="M67.1668 28.3503C66.9003 29.4469 66.3213 30.4427 65.5002 31.217L54.5002 41.9503C54.3889 42.0672 54.2987 42.2026 54.2335 42.3503C54.2011 42.5042 54.2011 42.6631 54.2335 42.817L56.8335 58.017C57.0502 59.137 56.9335 60.297 56.5002 61.3503C56.0987 62.3924 55.3895 63.2877 54.4668 63.917C53.5703 64.5786 52.5097 64.9821 51.4002 65.0836H50.9668C49.9899 65.0857 49.0278 64.8452 48.1668 64.3836L34.5002 57.2503C34.3583 57.1684 34.1973 57.1252 34.0335 57.1252C33.8697 57.1252 33.7087 57.1684 33.5668 57.2503L19.9002 64.417C18.875 64.9536 17.7213 65.1958 16.5668 65.117C15.4457 65.0214 14.3728 64.6176 13.4668 63.9503C12.5529 63.2974 11.8468 62.3946 11.4335 61.3503C11.0117 60.2925 10.8962 59.1373 11.1002 58.017L13.7002 42.8503C13.7487 42.6985 13.7487 42.5354 13.7002 42.3836C13.6483 42.2367 13.5692 42.101 13.4668 41.9836L2.46683 31.1836C1.66771 30.4108 1.10176 29.4291 0.833495 28.3503C0.509278 27.2628 0.509278 26.1044 0.833495 25.017C1.19994 23.9466 1.85995 23.0009 2.73816 22.2877C3.61637 21.5745 4.67742 21.1226 5.80016 20.9836L20.8002 18.7836C20.9496 18.7798 21.0922 18.7204 21.2002 18.617C21.3272 18.5196 21.4299 18.3941 21.5002 18.2503L28.5002 4.31695C28.9768 3.31695 29.7302 2.47362 30.6668 1.88362C31.3788 1.43402 32.1779 1.14021 33.0115 1.0215C33.8451 0.902796 34.6944 0.961878 35.5036 1.19487C36.3128 1.42786 37.0635 1.82948 37.7063 2.37332C38.3492 2.91716 38.8696 3.59092 39.2335 4.35028L46.1668 18.217C46.2506 18.3709 46.3638 18.5068 46.5002 18.617C46.6214 18.7202 46.7743 18.779 46.9335 18.7836L62.1668 20.9836C63.2735 21.1503 64.3135 21.6236 65.1668 22.3503C66.0035 23.0736 66.6368 24.0036 67.0002 25.0503C67.3535 26.117 67.4135 27.257 67.1668 28.3503Z" fill="#21056D"/>
</svg>
