<svg xmlns="http://www.w3.org/2000/svg" width="68" height="66" fill="none"><path fill="#21056D" d="M67.167 28.35a5.834 5.834 0 0 1-1.667 2.867l-11 10.733a1.4 1.4 0 0 0-.267.4 1.133 1.133 0 0 0 0 .467l2.6 15.2c.217 1.12.1 2.28-.333 3.333a5.5 5.5 0 0 1-2.033 2.567 6.1 6.1 0 0 1-3.067 1.167h-.433a5.899 5.899 0 0 1-2.8-.7L34.5 57.25a.934.934 0 0 0-.933 0L19.9 64.417a6.268 6.268 0 0 1-3.333.7 6.102 6.102 0 0 1-3.1-1.167 5.834 5.834 0 0 1-2.034-2.6 6.066 6.066 0 0 1-.333-3.333l2.6-15.167a.767.767 0 0 0 0-.466 1.233 1.233 0 0 0-.233-.4l-11-10.8A5.933 5.933 0 0 1 .833 28.35a5.833 5.833 0 0 1 0-3.333A6.033 6.033 0 0 1 5.8 20.984l15-2.2a.6.6 0 0 0 .4-.167c.127-.097.23-.223.3-.367l7-13.933c.477-1 1.23-1.843 2.167-2.433a5.967 5.967 0 0 1 8.566 2.466l6.934 13.867c.084.154.197.29.333.4a.7.7 0 0 0 .434.167l15.233 2.2a6.009 6.009 0 0 1 3 1.366A6.301 6.301 0 0 1 67 25.05a6.172 6.172 0 0 1 .167 3.3Z"/></svg>