<svg width="1694" height="1220" viewBox="0 0 1694 1220" fill="none" xmlns="http://www.w3.org/2000/svg">
<path d="M1627 562L1191.24 572.69L1189.83 582.176L1659.03 658.515L1627 562Z" fill="url(#paint0_linear_333_876)"/>
<path d="M1403 64L1132.46 502.781L1140.38 508.425L1427.11 120.296L1403 64Z" fill="url(#paint1_linear_333_876)"/>
<path d="M960.532 0L1086.77 489.641L1096 487.676L1015.98 20.1665L960.532 0Z" fill="url(#paint2_linear_333_876)"/>
<path d="M790 105L1076 522L1084 517L849 105H790Z" fill="url(#paint3_linear_333_876)"/>
<path d="M32.0003 620L1019.3 570.865L1019.25 552.882L60.9999 503L32.0003 620Z" fill="url(#paint4_linear_333_876)"/>
<path d="M486.546 1202.97L1076.49 591L938.874 696L343.548 1142.12L486.546 1202.97Z" fill="url(#paint5_linear_333_876)"/>
<path d="M1125.62 1134.2L1112.41 698.507L1096.89 685L1029.29 1166.79L1125.62 1134.2Z" fill="url(#paint6_linear_333_876)"/>
<defs>
<linearGradient id="paint0_linear_333_876" x1="2228.46" y1="643.497" x2="1189.2" y2="593.077" gradientUnits="userSpaceOnUse">
<stop offset="0.53021" stop-color="#140247"/>
<stop offset="0.654716" stop-color="#200669" stop-opacity="0.36"/>
<stop offset="0.783852" stop-color="#19B8F2" stop-opacity="0.19"/>
<stop offset="0.922936" stop-color="white"/>
</linearGradient>
<linearGradient id="paint1_linear_333_876" x1="1537.16" y1="-95.0732" x2="1121.29" y2="500.329" gradientUnits="userSpaceOnUse">
<stop offset="0.408753" stop-color="#140247"/>
<stop offset="0.598497" stop-color="#200669" stop-opacity="0.72"/>
<stop offset="0.805799" stop-color="#19B8F2" stop-opacity="0.19"/>
<stop offset="0.952784" stop-color="white"/>
</linearGradient>
<linearGradient id="paint2_linear_333_876" x1="969" y1="-74" x2="1094.29" y2="492.375" gradientUnits="userSpaceOnUse">
<stop offset="0.340601" stop-color="#140247" stop-opacity="0.32"/>
<stop offset="0.517929" stop-color="#200669" stop-opacity="0.4"/>
<stop offset="0.73894" stop-color="#19B8F2" stop-opacity="0.19"/>
<stop offset="0.922936" stop-color="white"/>
</linearGradient>
<linearGradient id="paint3_linear_333_876" x1="700" y1="-79" x2="1084" y2="522" gradientUnits="userSpaceOnUse">
<stop offset="0.367731" stop-color="#140247" stop-opacity="0.32"/>
<stop offset="0.509782" stop-color="#200669" stop-opacity="0.49"/>
<stop offset="0.73894" stop-color="#19B8F2" stop-opacity="0.19"/>
<stop offset="0.922936" stop-color="white"/>
</linearGradient>
<linearGradient id="paint4_linear_333_876" x1="-332.063" y1="575.678" x2="1027.34" y2="557.907" gradientUnits="userSpaceOnUse">
<stop offset="0.337815" stop-color="#140247"/>
<stop offset="0.500882" stop-color="#200669" stop-opacity="0.48"/>
<stop offset="0.729994" stop-color="#19B8F2" stop-opacity="0.19"/>
<stop offset="0.922936" stop-color="white" stop-opacity="0.34"/>
</linearGradient>
<linearGradient id="paint5_linear_333_876" x1="270.489" y1="1293" x2="919.343" y2="691.47" gradientUnits="userSpaceOnUse">
<stop offset="0.312777" stop-color="#140247"/>
<stop offset="0.528066" stop-color="#200669" stop-opacity="0.36"/>
<stop offset="0.698115" stop-color="#19B8F2" stop-opacity="0.16"/>
<stop offset="0.822324" stop-color="white" stop-opacity="0.36"/>
</linearGradient>
<linearGradient id="paint6_linear_333_876" x1="1059.49" y1="1400" x2="1125.11" y2="695.081" gradientUnits="userSpaceOnUse">
<stop offset="0.423605" stop-color="#140247" stop-opacity="0.32"/>
<stop offset="0.510571" stop-color="#200669" stop-opacity="0.36"/>
<stop offset="0.694304" stop-color="#19B8F2" stop-opacity="0.19"/>
<stop offset="0.922936" stop-color="white" stop-opacity="0.58"/>
</linearGradient>
</defs>
</svg>
